<svg id="td-icons-outline-download" xmlns="http://www.w3.org/2000/svg" width="40" height="40" viewBox="0 0 40 40">
  <rect id="Rectangle_1796" data-name="Rectangle 1796" width="40" height="40" rx="6" fill="none"/>
  <g id="Group_4719" data-name="Group 4719" transform="translate(8.132 8.132)">
    <path id="Path_2679" data-name="Path 2679" d="M1403.566,1444.29h-4.5a.6.6,0,0,0,0,1.2h3.9v4.8h-21.3v-4.8h3.9a.6.6,0,1,0,0-1.2h-4.5a.6.6,0,0,0-.6.6v6a.6.6,0,0,0,.6.6h22.5a.6.6,0,0,0,.6-.6v-6A.6.6,0,0,0,1403.566,1444.29Z" transform="translate(-1380.466 -1427.789)" fill="#fff"/>
    <path id="Path_2680" data-name="Path 2680" d="M1400.646,1406.813a.615.615,0,0,0,.849,0l7.495-7.5a.6.6,0,0,0-.425-1.024h-3.9v-8.4a.6.6,0,0,0-.6-.6h-6a.6.6,0,0,0-.6.6v8.4h-3.9a.6.6,0,0,0-.424,1.024Zm-2.581-7.325a.6.6,0,0,0,.6-.6v-8.4h4.8v8.4a.6.6,0,0,0,.6.6h3.052l-6.047,6.051-6.056-6.051Z" transform="translate(-1389.215 -1389.288)" fill="#fff"/>
  </g>
</svg>
