<svg xmlns="http://www.w3.org/2000/svg" width="284" height="50" viewBox="0 0 284 50">
  <g id="Group_44106" data-name="Group 44106" transform="translate(-295 -75)">
    <g id="Group_2851" data-name="Group 2851" transform="translate(295 75)">
      <rect id="Rectangle_780" data-name="Rectangle 780" width="50" height="50" rx="8" fill="#fff"/>
      <g id="Group_2850" data-name="Group 2850">
        <rect id="Rectangle_440" data-name="Rectangle 440" width="50" height="50" rx="8" fill="#d9dbef"/>
      </g>
      <g id="Group_2852" data-name="Group 2852" transform="translate(5 5)">
        <ellipse id="Ellipse_6" data-name="Ellipse 6" cx="11.538" cy="20" rx="11.538" ry="20" transform="translate(8.462)" fill="#404bad" opacity="0.5"/>
        <ellipse id="Ellipse_7" data-name="Ellipse 7" cx="20" cy="11.538" rx="20" ry="11.538" transform="translate(0 8.462)" fill="#404bad" opacity="0.5"/>
        <circle id="Ellipse_8" data-name="Ellipse 8" cx="15.385" cy="15.385" r="15.385" transform="translate(4.615 4.615)" fill="#404bad"/>
        <circle id="Ellipse_9" data-name="Ellipse 9" cx="12.308" cy="12.308" r="12.308" transform="translate(7.692 7.692)" fill="#fff"/>
        <ellipse id="Ellipse_10" data-name="Ellipse 10" cx="2.308" cy="3.662" rx="2.308" ry="3.662" transform="translate(12.308 16.154)" fill="#404bad"/>
        <ellipse id="Ellipse_11" data-name="Ellipse 11" cx="2.308" cy="3.662" rx="2.308" ry="3.662" transform="translate(23.077 16.154)" fill="#404bad"/>
      </g>
    </g>
    <path id="Path_2681" data-name="Path 2681" d="M14.893,39.506a15.307,15.307,0,0,1-6.835-1.459,10.9,10.9,0,0,1-4.613-4.155A11.84,11.84,0,0,1,1.8,27.6a12.545,12.545,0,0,1,1.628-6.428,11.326,11.326,0,0,1,4.477-4.342,13.17,13.17,0,0,1,6.377-1.543,13.17,13.17,0,0,1,6.377,1.543,11.325,11.325,0,0,1,4.477,4.342A12.545,12.545,0,0,1,26.764,27.6a10.823,10.823,0,0,1-1.306,5.274,9.25,9.25,0,0,1-3.443,3.646h5.122v2.985Zm-.611-3.154a10.253,10.253,0,0,0,4.647-1.018,7.388,7.388,0,0,0,3.171-3A9.367,9.367,0,0,0,23.237,27.6a9.533,9.533,0,0,0-1.187-4.8A8.208,8.208,0,0,0,18.827,19.6a9.273,9.273,0,0,0-4.545-1.119A9.37,9.37,0,0,0,9.72,19.6a8.207,8.207,0,0,0-3.239,3.188A9.508,9.508,0,0,0,5.294,27.6,9.344,9.344,0,0,0,6.43,32.349,7.416,7.416,0,0,0,9.6,35.334,10.331,10.331,0,0,0,14.282,36.352Zm17.841,9.87a10.609,10.609,0,0,1-3.053-.373v-2.68a6.077,6.077,0,0,0,2.171.339,2.737,2.737,0,0,0,1.866-.594A5.092,5.092,0,0,0,34.328,41l.78-1.9L27.985,23.225h3.528L36.94,35.741l5.054-12.516h3.528L38.195,41.338a9.165,9.165,0,0,1-2.425,3.714A5.514,5.514,0,0,1,32.123,46.222ZM48.574,14.44H52V39.506H48.574ZM64.991,40.015a10.747,10.747,0,0,1-4.833-1.035A7.7,7.7,0,0,1,56.9,36a8.764,8.764,0,0,1-1.17-4.6,8.888,8.888,0,0,1,1.153-4.579,7.755,7.755,0,0,1,3.256-3.036,11.544,11.544,0,0,1,9.7,0,7.866,7.866,0,0,1,3.273,3.036,8.787,8.787,0,0,1,1.17,4.579,8.763,8.763,0,0,1-1.17,4.6,7.68,7.68,0,0,1-3.273,2.985A10.855,10.855,0,0,1,64.991,40.015Zm0-2.713A5.552,5.552,0,0,0,69.2,35.673a5.919,5.919,0,0,0,1.56-4.274,5.94,5.94,0,0,0-1.56-4.342,6.345,6.345,0,0,0-8.412,0,5.94,5.94,0,0,0-1.56,4.342,5.919,5.919,0,0,0,1.56,4.274A5.552,5.552,0,0,0,64.991,37.3Z" transform="translate(353.199 72.561)" fill="#fff"/>
    <text id="Business" transform="translate(434 77)" fill="#fff" font-size="32" font-family="SegoeUI, Segoe UI"><tspan x="0" y="35">Business</tspan></text>
  </g>
</svg>
