<svg id="td-icons-outline-refresh" xmlns="http://www.w3.org/2000/svg" width="40" height="40" viewBox="0 0 40 40">
  <rect id="Rectangle_1792" data-name="Rectangle 1792" width="40" height="40" rx="6" fill="none"/>
  <g id="Group_4714" data-name="Group 4714" transform="translate(8.143 7.007)">
    <path id="Path_2674" data-name="Path 2674" d="M800.005,1027.851a10.662,10.662,0,0,1,10.65,10.65.6.6,0,1,0,1.2,0,11.849,11.849,0,0,0-18.646-9.707l-.293.206.464-2.785a.6.6,0,1,0-1.184-.2l-.738,4.429a.6.6,0,0,0,.1.447.6.6,0,0,0,.39.243l4.438.739a.6.6,0,1,0,.2-1.183l-3.212-.535.283-.21A10.541,10.541,0,0,1,800.005,1027.851Z" transform="translate(-788.155 -1025.516)" fill="#fff"/>
    <path id="Path_2675" data-name="Path 2675" d="M800.862,1075.432a.6.6,0,0,0-.1-.447.6.6,0,0,0-.39-.243l-4.438-.739a.6.6,0,1,0-.2,1.183l3.211.535-.282.21a10.538,10.538,0,0,1-6.347,2.1,10.662,10.662,0,0,1-10.65-10.65.6.6,0,0,0-1.2,0,11.849,11.849,0,0,0,18.646,9.707l.293-.206-.464,2.785a.6.6,0,1,0,1.184.2Z" transform="translate(-780.466 -1054.399)" fill="#fff"/>
  </g>
</svg>
